<svg xmlns="http://www.w3.org/2000/svg" viewBox="0 0 24 24" width="24" height="24" fill="currentColor" aria-hidden="true">
  <path d="M20.52 3.48A11.78 11.78 0 0012.05 0C5.5 0 .2 5.3.2 11.86c0 2.09.55 4.13 1.6 5.93L0 24l6.4-1.68a11.83 11.83 0 005.65 1.44h.01c6.55 0 11.85-5.3 11.85-11.86 0-3.17-1.23-6.15-3.39-8.42zM12.06 21.8h-.01a9.94 9.94 0 01-5.06-1.38l-.36-.22-3.8 1 1.02-3.7-.24-.38a9.93 9.93 0 01-1.52-5.26c0-5.48 4.46-9.94 9.96-9.94a9.9 9.9 0 017.04 2.91 9.88 9.88 0 012.91 7.04c0 5.48-4.46 9.93-9.94 9.93z"/>
</svg>
